<?xml version="1.0" encoding="UTF-8"?>
<svg id="Layer_1" data-name="Layer 1" xmlns="http://www.w3.org/2000/svg" viewBox="0 0 1013.44 1350">
  <defs>
    <style>
      .cls-1 {
        fill: #fff;
      }
    </style>
  </defs>
  <path class="cls-1" d="M812.53,827.61c8.73-34.47-2.93-69.16-6.31-75.91-.3-.66-1.18-2.35-3.01-2.93-4.47-1.47-16.36,11.37-20.68,16.36-2.93-5.65-5.94-10.34-8.14-13.42,10.49-6.75,30.51-29.19,38.14-59.26,8.73-34.4-2.93-69.16-6.31-75.91-.3-.66-1.18-2.35-3.01-2.93-.59-.22-5.65-1.17-20.75,16.28-4.33-8.36-8.29-13.86-10.05-15.92-.3-.29-.59-.59-.88-.81-1.98-1.69-5.14-1.32-6.6.73-.15.15-.22.22-.3.37-.51.59-4.84,5.87-9.9,15.7-4.33-4.99-16.14-17.6-20.76-16.36-4.4,1.47-8.51,19.36-9.68,25.08-.15.66-.22,1.17-.3,1.47-1.62,8.65-2.49,17.24-2.49,25.6s.95,17.02,2.79,24.72c.15.66.29,1.32.44,1.98,7.7,30.51,28.45,52.66,38.06,59.41-1.69,2.35-4.77,6.89-8.07,13.28-4.33-4.99-16.06-17.68-20.68-16.36-4.48,1.47-8.59,19.44-9.68,25.08-.15.66-.22,1.17-.29,1.47-1.69,8.58-2.5,17.16-2.5,25.6s.88,17.24,2.79,25.01c.07.59.22,1.17.37,1.69,7.7,30.51,28.45,52.74,38.06,59.34-1.76,2.42-4.7,6.89-8,13.35-4.4-4.99-16.13-17.68-20.75-16.36-4.48,1.47-8.59,19.88-9.68,25.16-.22.81-.29,1.25-.29,1.39-1.69,8.58-2.5,17.24-2.5,25.6s.88,16.72,2.64,24.35c.15.81.3,1.54.52,2.35,2.49,9.9,6.6,19.66,12.1,28.97-6.16,1.32-12.98,3.45-15.26,4.25-3.74,1.25-7.33,2.64-10.85,4.18v.07c-3.52,1.39-6.97,3.08-10.27,4.84l-.07.07c-1.76.95-3.45,1.91-5.13,2.93-.07.07-.44.29-.96.66-.29.22-.58.44-.95.66-4.1,2.71-7.55,5.21-10.05,7.11-.37.29-.73.59-1.02.81q-.07.07-.15.15c-1.54,1.25-2.64,2.13-3.15,2.49h0c.52-.38,1.61-1.25,3.14-2.49q.07-.07.15-.15c.3-.22.66-.51,1.03-.81,2.49-1.91,5.94-4.4,10.05-7.11.37-.22.66-.44.95-.66.51-.37.88-.59.95-.66,1.69-1.03,3.37-1.98,5.14-2.93l.07-.07c3.3-1.76,6.75-3.45,10.27-4.84v-.07c.07-.07.14-.07.14-.15,7.92-11.44,12.4-24.64,13.35-39.61-1.76-7.63-2.64-15.84-2.64-24.35s.81-17.02,2.5-25.6c0-.15.07-.59.3-1.39v-83.17c-1.91-7.77-2.79-16.21-2.79-25.01s.81-17.02,2.5-25.6c.07-.29.15-.81.3-1.47,0-26.7,0-54.79-.08-83.1v-.29c-1.83-7.7-2.78-15.99-2.78-24.72s.88-16.94,2.49-25.6c.07-.29.15-.81.29-1.47v-32.42h45.11v-185.71h-45.18v-21.29h.02v-10.01h-434.82v10.01h0v.02c0,4.33,0,11.59-.07,21.27h-43.5v185.71h43.42v33.07c-.98-4.66-5.21-24.2-9.96-25.81-4.47-1.25-16.28,11.44-20.61,16.43-5.06-9.83-9.39-15.11-9.9-15.77-.07-.07-.15-.22-.3-.29-1.46-2.05-4.62-2.42-6.6-.73-.3.22-.59.51-.88.81-1.76,2.05-5.72,7.55-10.05,15.92-4.4-4.99-16.21-17.75-20.76-16.28-1.83.59-2.71,2.27-3.01,2.93-3.37,6.75-15.04,41.51-6.31,75.91,7.63,30.07,27.65,52.52,38.13,59.26-2.19,3.08-5.2,7.77-8.14,13.42-4.33-4.99-16.21-17.82-20.69-16.36-1.83.59-2.71,2.27-3.01,2.93-3.37,6.75-15.04,41.44-6.31,75.91,8.14,32.2,29.41,53.54,38.13,59.26-2.27,3.01-5.2,7.7-8.14,13.35-4.4-4.99-16.21-17.75-20.69-16.28-1.9.59-2.71,2.27-3.01,2.93-3.37,6.75-15.04,41.44-6.31,75.84,8.8,34.91,33.3,58.09,41.07,61.02l2.71,1.1c.08,0,.22.07.3.07l.22.07.07.07v.07c.88,2.57,3.74,8.8,8.87,16.65-6.45,1.32-23.47,5.28-24.43,9.97-.36,1.83.66,3.37,1.11,4.03,4.18,6.23,28.6,33.59,62.86,42.91,10.34,2.86,20.46,3.96,29.85,3.96,20.9,0,37.77-5.43,42.91-9.17h.37c2.86,2.35,8.51,6.09,15.48,9.75-4.92,4.33-17.75,16.21-16.28,20.68.59,1.84,2.13,2.64,2.93,3.01,4.99,2.49,25.16,9.46,49.21,9.46,8.58,0,17.6-.88,26.7-3.15.07,0,.15-.07.22-.07-2.79,9.1-3.45,17.02-3.52,18.7-.15,1.32.37,2.64,1.4,3.59.81.81,1.9,1.17,3.01,1.17.29,0,.52,0,.73-.07,5.06-.81,47.31-9.17,60.07-59.26,12.69,50.1,54.94,58.46,59.92,59.26.3.07.59.07.81.07,1.1,0,2.2-.37,3.01-1.17,1.03-.95,1.54-2.27,1.47-3.59-.15-1.69-.81-9.61-3.6-18.7.07,0,.15.07.22.07,9.09,2.27,18.11,3.15,26.69,3.15,24.06,0,44.23-6.97,49.22-9.46.81-.37,2.34-1.17,2.93-3.01,1.47-4.47-11.37-16.36-16.28-20.68,6.89-3.67,12.54-7.33,15.4-9.68h.52c5.21,3.67,22,9.1,42.83,9.1,9.39,0,19.51-1.1,29.85-3.96,34.25-9.31,58.67-36.67,62.86-42.91.44-.66,1.47-2.2,1.11-4.11-.96-4.62-17.97-8.58-24.43-9.9,5.14-7.85,7.99-14.08,8.87-16.65v-.07h.07l.15-.15h.07c.07,0,.15-.07.3-.07l2.64-1.1c7.85-2.93,32.35-26.11,41.15-61.02,8.73-34.4-2.93-69.09-6.31-75.84-.3-.66-1.1-2.35-3.01-2.93-4.47-1.47-16.28,11.3-20.68,16.28-2.93-5.65-5.86-10.27-8.14-13.28,8.88-5.94,30-27.21,38.14-59.34ZM209.12,690.01c-6.52-25.6-.58-52.81,4.04-65.42,2.71,2.27,7.99,6.97,13.72,14.01l-.07.07c-.66,1.54-1.25,3.08-1.76,4.55-.37.81-.67,1.61-.88,2.42-.15.29-.3.66-.37.95-.37,1.03-.81,2.13-1.1,3.15l-.15.51c-.22.59-.37,1.17-.51,1.69l-.07.15c-.22.59-.37,1.17-.44,1.69-.3.95-.59,1.98-.81,2.93-.37,1.1-.59,2.35-.88,3.52-.22,1.1-.52,2.27-.74,3.45-1.25,6.6-1.91,13.13-1.91,19.36,0,1.32,0,2.57.07,3.81,0,.07,0,.22.07.37,0,1.1.07,2.2.15,3.23,0,.44.07.88.07,1.1l.07.59c.07.81.15,1.69.22,2.49.15,1.25.3,2.49.44,3.74.22,1.25.44,2.42.59,3.67l.15.44c.07.66.22,1.32.37,1.98.3,1.61.66,3.15.96,4.69,0,.07.07.15.07.22,1.18,4.91,2.71,9.83,4.47,14.6-5.79-8.36-12.24-19.95-15.77-33.96ZM209.12,825.19c-6.52-25.52-.58-52.81,4.04-65.42,2.71,2.2,7.92,6.89,13.72,14.01l-.07.07c-.66,1.54-1.25,3.08-1.84,4.55-.29.81-.59,1.61-.8,2.35-.15.29-.3.51-.37.81l-.07.22c-.37,1.03-.74,2.13-1.03,3.15l-.15.44c-.22.59-.37,1.25-.59,1.83-.15.59-.37,1.17-.51,1.76-.3.95-.52,1.98-.74,2.93-.37,1.03-.59,2.13-.81,3.15l-.07.37c-.3,1.17-.52,2.35-.74,3.45-1.25,6.68-1.91,13.13-1.91,19.36,0,1.32,0,2.57.07,3.81v.37c.07,1.1.07,2.13.22,3.23,0,.44,0,.81.07,1.17l.07.44c0,.88.15,1.69.22,2.57.07.95.22,1.98.37,3.01l.3,2.05c.15.73.22,1.54.37,2.35l.15.59c.07.66.22,1.32.3,1.83.37,1.61.66,3.15,1.03,4.69,0,.07,0,.15.07.22,1.18,4.91,2.71,9.83,4.47,14.67-5.86-8.43-12.24-20.02-15.77-34.03ZM209.05,960.36c-6.45-25.6-.51-52.81,4.04-65.42,2.71,2.2,7.92,6.89,13.72,14.01l-.07.07c-.59,1.54-1.17,3.08-1.76,4.55-.36.81-.66,1.61-.88,2.35l-.36.95c-.37,1.1-.74,2.13-1.03,3.15-.29.73-.51,1.54-.73,2.27l-.07.37c-.15.51-.37,1.03-.44,1.47l-.07.22c-.22.88-.52,1.76-.73,2.71-.3,1.03-.52,2.13-.74,3.23l-.15.29c-.15.81-.3,1.69-.52,2.49l-.15.95c-1.32,6.6-1.91,13.13-1.91,19.36,0,1.25,0,2.57.07,3.81v.37c.07,1.1.07,2.13.15,3.15.07.44.07.88.07,1.17.15,1.1.22,2.05.37,3.08.07,1.03.22,2.05.37,3.08l.07.66c.15,1.25.37,2.42.59,3.67l.15.73c.07.59.15,1.17.3,1.69.29,1.61.66,3.15,1.03,4.69v.22c1.25,4.91,2.71,9.83,4.54,14.67-5.86-8.44-12.24-20.02-15.84-34.03ZM240.73,1008.19c0-.07-.07-.07-.07-.07l-.22-.44c-3.89-6.45-7.12-13.2-9.61-20.24-.44-1.1-.81-2.27-1.25-3.52l-.22-.73s-.08-.07-.08-.15c-.44-1.39-.88-2.93-1.24-4.55-.52-1.69-.88-3.15-1.17-4.62-.3-1.17-.52-2.13-.67-3.15-.22-1.25-.51-2.57-.73-4.18l-.07-.51c-.07-.81-.22-1.54-.29-2.49-.07-.59-.15-1.1-.22-1.69v-.88c-.14-.66-.14-1.32-.14-2.05l-.07-.51c-.07-.51-.07-1.03-.07-1.54,0-.37,0-.73-.08-1.03v-2.71c0-3.89.3-7.85.88-12.1.3-1.91.59-3.67.96-5.5,0,0,.07-.15.07-.22,0-.22,0-.37.15-.66,1.91-9.02,5.28-18.19,9.9-27.28,1.32-2.57,2.79-5.06,4.25-7.48v108.33ZM240.73,872.94q-.07,0-.07-.07l-.22-.37c-3.89-6.45-7.12-13.2-9.61-20.17-.44-1.25-.88-2.57-1.32-3.96l-.15-.29c0-.07,0-.15-.08-.15-.44-1.47-.88-3.01-1.24-4.62-.52-1.69-.88-3.15-1.17-4.62-.3-1.1-.52-2.13-.67-3.15-.29-1.39-.51-2.79-.66-4.18-.15-.95-.3-1.91-.37-2.86,0-.07,0-.15-.07-.15-.07-.59-.15-1.17-.22-1.76v-.81c-.07-.66-.14-1.32-.14-1.98l-.07-.59c0-.51-.07-1.03-.07-1.54v-1.1c-.08-.81-.08-1.76-.08-2.64,0-3.89.3-7.85.88-12.1.3-1.91.59-3.59.96-5.43.07-.07.07-.15.07-.29s0-.29.15-.51v-.15c1.98-9.02,5.28-18.19,9.9-27.29,1.32-2.57,2.71-4.99,4.25-7.41v108.18ZM240.73,737.76c-.15-.15-.22-.29-.29-.44-3.82-6.38-7.04-13.13-9.61-20.17-.44-1.39-.96-2.79-1.4-4.25-.07-.07-.07-.15-.07-.22-.59-1.76-.96-3.15-1.32-4.62-.37-1.25-.81-2.86-1.1-4.55-.3-1.03-.51-2.05-.66-3.15-.29-1.39-.59-2.79-.73-4.25-.15-.88-.3-1.83-.37-2.93-.07-.44-.14-.95-.22-1.39,0-.29,0-.59-.07-.88v-.29c-.07-.66-.14-1.32-.14-2.13v-.44c-.07-.51-.07-1.03-.15-1.54v-1.03c-.08-.88-.08-1.83-.08-2.71,0-3.74.3-7.7.88-12.1.37-2.13.66-3.81,1.03-5.43v-.29c.07-.22.07-.44.15-.66,1.98-9.02,5.28-18.19,9.98-27.28,1.32-2.57,2.64-5.06,4.18-7.41v108.18ZM732.88,690.01c-1.91-7.55-2.86-15.77-2.93-24.35,0-17.31,4.11-33.01,6.97-41.07,2.71,2.27,7.99,6.97,13.71,14.01,0,.15-.07.22-.07.29-.15.29-.3.59-.37.81-.37.95-.73,1.83-1.1,2.71l-.22.59c-.44,1.1-.81,2.2-1.25,3.3-.22.73-.52,1.54-.73,2.27l-.74,2.13c-.37,1.32-.81,2.71-1.1,3.96-.3.88-.52,1.69-.74,2.57-.15.51-.22,1.1-.37,1.61-.15.51-.3,1.03-.37,1.61-.22,1.1-.44,2.13-.66,3.23l-.07.37c-1.25,6.38-1.84,12.84-1.84,19,0,1.32,0,2.64.08,3.96.07,1.17.07,2.35.15,3.3,0,.37.07.66.15.95v.88c1.1,12.54,4.25,23.69,7.48,32.2-5.79-8.29-12.32-19.95-15.99-34.33ZM732.88,825.19c-1.91-7.63-2.86-15.77-2.86-24.35,0-17.38,4.04-33.08,6.97-41.07,2.72,2.2,7.92,6.89,13.72,14.01-.07.07-.07.22-.15.29-.15.29-.22.66-.3.81l-.22.44c-.29.81-.66,1.54-.95,2.49-.07.07-.15.15-.15.37-.36.81-.66,1.54-.95,2.35l-.29.95c-.15.37-.3.73-.44,1.17-.07.29-.22.66-.37,1.1l-.22.73c-.15.44-.29.88-.44,1.32-.44,1.39-.88,2.71-1.17,4.03-.15.59-.37,1.17-.52,1.76l-.15.73c-.22.66-.37,1.32-.51,1.98l-.3,1.32c-.22,1.1-.44,2.13-.66,3.23l-.07.29c-1.17,6.38-1.84,12.76-1.84,19.07,0,1.32.08,2.64.08,4.03.07,1.1.15,2.27.22,3.3,0,.37,0,.66.07.88,0,.37,0,.66.07.81,1.03,12.62,4.26,23.76,7.41,32.35-5.79-8.36-12.32-20.02-15.99-34.4ZM732.95,960.36c-1.98-7.56-2.93-15.77-2.93-24.35,0-17.38,4.04-33.15,6.97-41.07,2.72,2.2,7.92,6.89,13.72,14.01-.07.07-.07.22-.15.29-.15.29-.22.59-.3.81l-.22.44c-.29.73-.58,1.54-.95,2.42-.07.15-.15.29-.15.44-.36.81-.66,1.61-.95,2.42l-.29.88c-.15.37-.3.73-.37,1.1-.15.37-.3.73-.44,1.17-.22.66-.44,1.39-.67,2.05-.44,1.39-.8,2.71-1.17,4.03-.22.81-.44,1.61-.67,2.49-.22.73-.37,1.47-.51,2.2l-.3,1.1c-.22,1.03-.44,2.13-.66,3.15v.37l-.07.15c-.15.88-.3,1.76-.44,2.64-.59,3.74-1.03,7.48-1.18,11.08-.15,1.76-.15,3.52-.15,5.21v3.96c.07,1.1.15,2.27.22,3.37,0,.29,0,.59.07.88,0,.29,0,.59.07.95.96,10.63,3.37,20.24,6.01,28.09.22.66.44,1.32.67,1.98.22.73.51,1.39.73,2.05-.52-.73-1.03-1.47-1.47-2.35-.07,0-.07-.07-.07-.07-.3-.29-.52-.66-.74-.95-.15-.29-.29-.51-.44-.81-6.16-9.61-10.56-19.73-13.2-30.14ZM757.38,1017.72c-3.01-.15-6.97-.29-11.81-.07,1.1-3.15,2.05-6.38,2.86-9.39,3.01,3.59,6.01,6.82,8.95,9.46ZM682.49,1028.28c3.67-3.45,7.71-6.67,12.1-9.76,2.5-1.69,5.06-3.3,7.63-4.77,17.39-9.83,33.74-13.28,39.24-14.23-.66,3.37-2.12,10.27-5.42,18.85-.15,0-.22,0-.3.07-.29,0-.52,0-.73.07h-.15c-1.03.15-1.98.22-3.15.44h-.36c-1.18.22-2.35.37-3.52.59-.59.15-1.24.22-1.9.37l-.44.07c-.58.15-1.25.22-1.83.37l-.29.07c-1.47.29-2.79.66-4.11,1.03-.81.15-1.69.37-2.49.59-.59.15-1.1.29-1.69.51-.52.15-1.03.29-1.54.44-.95.29-1.9.59-2.78.88l-.66.29c-6.16,2.05-12.03,4.69-17.46,7.77-1.17.66-2.27,1.32-3.37,1.98-.96.59-1.99,1.25-2.94,1.83-.29.22-.66.44-.81.59-.22.15-.44.29-.66.44-10.42,7.19-18.48,15.4-24.36,22.37,4.41-9.17,11.37-20.61,22-30.88ZM267.29,990.58c-.15.22-.3.44-.44.66-.22.37-.44.73-.66,1.03,0,0,0,.07-.07.07-.51.88-1.02,1.61-1.54,2.35.22-.66.44-1.32.73-2.05.22-.66.44-1.32.66-1.98,2.64-7.85,5.06-17.46,6.01-28.09,0-.37.07-.66.07-.95.07-.29.07-.59.07-.81.07-1.18.15-2.35.15-3.52.07-1.32.15-2.57.15-3.89,0-1.69-.07-3.45-.15-5.14-.22-3.67-.59-7.41-1.25-11.15-.14-.88-.29-1.76-.44-2.64,0,0,0-.15-.07-.15l-.07-.29c-.15-1.1-.37-2.2-.59-3.3l-.29-1.03c-.15-.73-.3-1.47-.51-2.2l-.08-.15c-.15-.81-.36-1.54-.59-2.27-.37-1.39-.74-2.71-1.17-4.11-.22-.66-.44-1.39-.67-2.13-.15-.37-.3-.73-.44-1.1-.07-.37-.22-.73-.37-1.17l-.29-.81c-.3-.81-.59-1.61-.96-2.42-.07-.15-.07-.29-.15-.51-.37-.81-.66-1.61-1.03-2.35l-.07-.37c-.15-.29-.22-.59-.37-.88-.07-.07-.15-.22-.15-.29,5.87-7.11,11-11.81,13.72-14.01,2.93,7.92,6.97,23.69,6.97,41.07,0,8.58-.96,16.8-2.93,24.35-2.64,10.41-7.11,20.61-13.2,30.22ZM267.87,1017.65c-4.84-.22-8.8-.07-11.81.07,2.94-2.64,6.02-5.87,8.95-9.46.8,3.01,1.76,6.23,2.86,9.39ZM270.59,799.15l-.07-.29c-.22-1.1-.44-2.13-.66-3.3l-.29-1.25c-.15-.66-.3-1.32-.44-1.98l-.22-.73c-.14-.59-.29-1.17-.51-1.69-.37-1.39-.74-2.71-1.17-4.11l-.67-2.13c-.15-.37-.3-.73-.37-1.1-.15-.37-.29-.73-.44-1.17l-.29-.88c-.3-.81-.59-1.54-.96-2.49-.07-.07-.07-.15-.15-.37-.3-.73-.59-1.47-.88-2.2l-.22-.44c-.07-.37-.22-.66-.37-.88,0-.15-.07-.22-.15-.37,5.79-7.04,11-11.81,13.72-14.01,2.93,8,6.97,23.69,6.97,41.07,0,8.58-.96,16.72-2.86,24.35-3.67,14.3-10.12,25.96-15.99,34.32,3.15-8.51,6.38-19.66,7.41-32.13.07-.29.07-.59.07-.95.07-.29.07-.59.07-.81.07-1.1.15-2.27.22-3.52.07-1.25.07-2.57.07-3.89,0-6.31-.66-12.69-1.83-19.07ZM288.7,827.61c.22-.85.42-1.78.57-2.63v.29c-.08,33.18-.08,62.26-.08,84.4-.91-4.33-5.14-24.19-9.88-25.79-4.55-1.25-16.28,11.44-20.69,16.43-3.23-6.38-6.23-10.86-7.99-13.35,9.61-6.6,30.37-28.82,38.06-59.34ZM302.83,1000.18c-3.51-1.54-7.17-2.93-10.98-4.17-2.27-.81-9.09-2.93-15.25-4.25,5.5-9.39,9.61-19.07,12.1-28.97.22-1.01.5-1.95.65-2.96.89,15.23,5.43,28.78,13.48,40.35ZM311.14,1013.76c7.56,4.25,14.16,9.17,19.73,14.52,10.71,10.27,17.68,21.71,22,30.88-5.79-6.97-13.93-15.18-24.2-22.3-.22-.15-.44-.29-.81-.59-.22-.15-.44-.37-.8-.51-.88-.59-1.84-1.25-2.86-1.83-1.1-.66-2.2-1.32-3.37-1.98-5.42-3.08-11.29-5.72-17.45-7.85l-.66-.22c-.95-.29-1.83-.59-2.78-.88-.52-.15-1.11-.29-1.54-.44-.59-.22-1.1-.37-1.69-.51-.81-.22-1.61-.44-2.42-.59-1.32-.37-2.71-.73-4.19-1.03l-.29-.07c-.66-.15-1.25-.22-1.83-.37l-.51-.07c-.59-.15-1.18-.22-1.84-.37-1.17-.22-2.34-.37-3.6-.59-.07,0-.22,0-.44-.07-1.03-.15-1.98-.22-2.93-.37h-.22c-.22-.07-.44-.15-.59-.07-.15-.07-.3-.07-.44-.07-3.3-8.58-4.84-15.47-5.43-18.85,5.5.95,21.86,4.4,39.16,14.23ZM392.47,1044.78c4.77-.88,9.46-1.54,14.08-1.98h.02c-4.62.44-9.32,1.1-14.09,1.98-.44.07-1.46.29-2.86.59h-.02c1.39-.29,2.42-.51,2.86-.59ZM418.08,1050.73c8.58,0,16.8.95,24.35,2.86,14.3,3.67,26.04,10.2,34.33,15.99-8.51-3.15-19.58-6.38-32.12-7.41-.3-.07-.59-.07-.96-.07-.3-.07-.59-.15-.81-.15-1.17,0-2.35-.07-3.45-.15-7.41-.29-15.1.29-23.03,1.76l-.3.07c-1.1.22-2.2.44-3.3.66l-1.03.22c-.74.15-1.47.37-2.27.59-.81.22-1.62.37-2.35.66-1.39.29-2.79.73-4.04,1.17-.73.22-1.47.44-2.12.66l-.3.07c-.66.22-1.32.51-1.98.73-1.1.37-2.2.81-3.37,1.25-.07.07-.22.07-.44.15l-.3.15c-.88.29-1.69.66-2.41.95-.3.15-.59.22-.74.29-.15.07-.3.15-.44.22-7.12-5.87-11.81-11.07-14.01-13.72,7.92-2.93,23.69-6.97,41.07-6.97ZM406.77,1042.8c4.18-.37,8.36-.51,12.47-.51,0,0,0,0,0,0-4.1,0-8.28.15-12.46.51h-.02ZM416.17,1071.26l.37-.07h.22c.22-.07.44-.15.66-.15h.15c2.2-.51,3.96-.81,5.57-1.03,3.89-.59,7.85-.81,12.03-.81,3.74,0,7.63.22,11.51.66,1.76.22,3.52.51,5.5.88.44.07.81.15,1.18.15.51.15,1.02.22,1.54.37,2.2.44,5.06,1.1,7.92,1.98.73.15,1.32.37,1.98.59l.58.22c.81.22,1.54.51,2.35.73l.59.22c1.24.44,2.42.88,3.59,1.32l.74.29c.51.22.95.37,1.39.51,5.65,2.27,11,4.99,15.99,8.07h-107.82c2.35-1.39,4.7-2.71,7.19-4.03,9.1-4.62,18.12-7.99,26.77-9.9ZM622.42,1071.41c-.07-.07-.22-.07-.3-.15-.29-.15-.59-.22-.81-.29-.8-.37-1.61-.66-2.42-1.03l-.44-.22c-.15,0-.22,0-.44-.15-1.1-.37-2.2-.81-3.23-1.17-.73-.22-1.4-.51-2.05-.66l-.22-.15c-.74-.22-1.47-.44-2.13-.66-1.4-.44-2.79-.88-3.96-1.17-.88-.29-1.69-.44-2.57-.66-.74-.22-1.47-.44-2.2-.59l-1.1-.22c-1.1-.22-2.13-.44-3.23-.66l-.3-.07c-6.53-1.17-12.91-1.83-19.07-1.83-1.32,0-2.57,0-3.89.07-1.25.07-2.42.15-3.45.15-.29,0-.58.07-.88.15-.37,0-.66,0-.81.07-12.61,1.03-23.76,4.18-32.27,7.41,6.16-4.33,14.38-9.1,24.13-12.76,3.3-1.25,6.75-2.35,10.2-3.23,7.63-1.91,15.77-2.86,24.35-2.86,17.39,0,33.08,4.03,41.15,6.97-2.27,2.64-6.97,7.85-14.08,13.72ZM624.03,1081.16c2.42,1.32,4.84,2.64,7.19,4.03h-107.74c4.91-3.08,10.34-5.79,15.91-8.07.44-.15.88-.29,1.32-.51l.81-.29c1.17-.44,2.34-.88,3.59-1.32l.66-.22c.73-.22,1.47-.51,2.2-.73l.73-.22c.59-.22,1.25-.44,1.98-.59,2.78-.81,5.65-1.54,7.85-1.98.52-.15,1.03-.22,1.54-.37.37,0,.81-.07,1.1-.15,1.98-.37,3.81-.66,5.5-.88,3.96-.44,7.85-.66,11.52-.66,4.25,0,8.21.22,12.17.88,1.54.15,3.3.44,5.5.95h.15c.22,0,.44.07.66.15h.22l.22.07c8.8,1.91,17.82,5.28,26.92,9.9ZM692.67,1005.84c-1.4,1.32-2.94,2.64-4.63,3.96-3.3,2.64-6.9,5.13-10.78,7.41-29.85,17.53-69.68,20.68-82.88,21.71-.15,0-.37,0-.59.07-8.8.66-17.38,2.2-25.52,4.4-3.82,1.03-7.55,2.2-11.15,3.52-22.52,8.36-37.41,21.12-48.92,32.42l-1.39,1.39-2.2-2.13c-17.02-16.65-42.02-36.16-84.93-39.61h-.15l-.3-.07c-35.94-2.79-63.23-10.05-83.47-22.08-5.43-3.23-10.27-6.82-14.52-10.63-14.67-13.5-22.08-30.95-22.08-52.08v-18.04c0-25.45.07-75.4.07-135.17l.07-135.18v-59.48h414.91c.07,19.51.07,39.46.07,59.48,0,46.5.07,93.22.07,135.18v153.22c0,20.9-7.26,38.36-21.71,51.71ZM299.39,399.28h414.84v21.27h-414.84v-21.27ZM255.82,541.05v-55.38h503.59v55.38H255.82ZM289.27,689.87v85.06c-.69-3.83-5.07-24.64-9.96-26.24-4.55-1.25-16.28,11.44-20.61,16.43-3.3-6.38-6.38-10.93-8.07-13.28,9.53-6.6,30.29-28.82,38.06-59.41.22-.85.42-1.71.57-2.56ZM276.53,624.59c2.86,8,6.9,23.69,6.9,40.93v.15c0,8.58-.96,16.72-2.86,24.35-3.67,14.38-10.12,26.04-15.99,34.33,3.15-8.43,6.38-19.58,7.41-32.05.07-.37.07-.66.15-1.03v-.81c.15-1.1.15-2.27.22-3.52.07-1.25.07-2.57.07-3.89,0-6.23-.59-12.69-1.83-19.07l-.07-.29c-.22-1.1-.37-2.13-.66-3.3-.15-.51-.22-1.03-.37-1.54-.07-.59-.22-1.1-.37-1.61-.22-.88-.44-1.69-.66-2.49-.37-1.32-.81-2.71-1.17-4.11l-.74-2.05c-.22-.81-.51-1.54-.81-2.27-.37-1.1-.73-2.2-1.25-3.45,0-.07-.07-.22-.15-.37-.37-.95-.74-1.83-1.1-2.64-.07-.29-.22-.66-.29-.81-.07-.15-.15-.29-.22-.44,5.87-7.04,11.08-11.74,13.79-14.01ZM249.02,629.87c1.4,2.27,2.71,4.69,3.96,7.11,4.7,9.09,8,18.12,9.9,26.77l.07.37v.22c.07.15.07.37.15.59v.22c.37,1.61.74,3.59,1.03,5.57.59,3.96.88,7.99.88,12.1,0,3.59-.22,7.33-.74,11.44-.15,1.69-.51,3.45-.81,5.5-.15.44-.22.88-.3,1.32-.07.44-.15.95-.29,1.47-.66,3.23-1.32,5.57-1.98,7.85-.15.59-.3,1.1-.44,1.61-.15.37-.22.73-.29.95l-1.1,3.15c-.44,1.17-.81,2.27-1.25,3.37l-.81,2.13c-2.27,5.57-5.06,11-8,15.84v-107.6ZM249.02,765.12c1.4,2.27,2.64,4.62,3.96,7.04,4.63,9.09,8,18.12,9.9,26.77v.37c0,.07.07.15.07.15.07.29.07.51.15.88.29,1.1.44,2.13.59,3.01.15.44.15.88.22,1.32.07.44.15.88.15,1.25.07.51.15.95.22,1.47.22,1.47.37,2.93.44,4.47.15,1.98.22,4.03.22,6.16,0,3.67-.22,7.56-.66,11.44-.22,1.76-.51,3.59-.88,5.57-.07.29-.15.73-.22,1.03-.07.59-.15,1.1-.29,1.69-.52,2.27-1.17,5.06-1.98,7.85-.15.66-.37,1.32-.59,1.98l-.22.66c-.22.73-.51,1.47-.8,2.27-.52,1.39-.96,2.86-1.54,4.25-.22.66-.52,1.39-.81,2.05-2.27,5.57-4.98,11.07-7.92,15.84v-107.52ZM249.02,1007.74v-107.45c1.32,2.27,2.64,4.62,3.96,7.04,4.63,9.09,7.92,18.12,9.9,26.77v.37c0,.07,0,.15.07.15.07.29.07.51.07.73,0,0,.07.07.07.15.22.95.37,1.83.51,2.79.22.88.3,1.76.44,2.79.37,2.49.66,4.91.81,7.55.07,1.47.07,2.94.07,4.48,0,3.74-.22,7.63-.66,11.52-.22,1.76-.51,3.52-.88,5.5-.07.44-.15.73-.22,1.17-.07.51-.15,1.03-.29,1.54-.74,3.23-1.32,5.65-1.98,7.92-.15.59-.3,1.1-.51,1.61-.07.37-.22.66-.3.95-.15.59-.37,1.1-.59,1.61l-.3,1.03c-.44,1.32-.95,2.64-1.46,3.96-.3.66-.52,1.32-.81,2.05-2.27,5.57-4.98,11-7.92,15.77ZM295.67,1090.4c-29.26-7.99-49.51-29.48-54.94-35.79,3.3-1.25,10.05-3.52,18.92-4.99l.15.07c.95,1.32,1.98,2.57,3.01,3.81l.22.37c.52.51.95,1.1,1.39,1.54.15.22.3.44.44.59l.22.22c.73.88,1.46,1.69,2.2,2.49.59.59,1.1,1.17,1.68,1.76.44.44.81.88,1.25,1.32.74.73,1.47,1.47,2.2,2.13.88.88,1.69,1.69,2.64,2.49.88.81,1.76,1.61,2.64,2.35,5.21,4.4,10.56,8.14,15.84,11.15,1.18.66,2.35,1.32,3.52,1.91,0,0,.07,0,.15.07,1.02.51,1.98,1.03,2.93,1.47.37.15.74.37,1.1.51l.95.44c.59.3,1.18.59,1.76.81,1.1.44,2.2.88,3.3,1.32l.22.15c1.18.44,2.27.88,3.45,1.25l.73.29c.59.15,1.17.37,1.61.51,1.54.51,3.08.95,4.55,1.39.07.07.15.07.22.15,4.91,1.39,9.9,2.49,14.96,3.3-10.12.95-23.4.81-37.33-3.08ZM329.99,1084.9c-1.39-.22-2.71-.44-4.03-.73l-.44-.07c0-.07-.07-.07-.15-.07-1.76-.37-3.23-.73-4.62-1.1-1.83-.44-3.23-.88-4.62-1.32-1.03-.29-2.06-.59-3.01-.95-1.32-.44-2.57-.88-3.96-1.47l-.3-.07c-.81-.3-1.61-.66-2.57-1.1-.44-.15-.95-.37-1.39-.59-.22-.07-.44-.22-.73-.29l-.15-.15c-.81-.29-1.54-.66-2.34-1.1-.51-.22-1.03-.51-1.54-.73l-.81-.44c-.81-.37-1.61-.81-2.35-1.25-3.37-1.91-6.67-4.18-10.12-6.82-1.69-1.32-3.01-2.42-4.4-3.59-.15-.15-.37-.29-.58-.51-6.82-6.16-13.2-13.57-18.78-22.08-1.69-2.49-3.23-5.06-4.62-7.7l93.08,53.84c-7.34.15-14.53-.44-21.57-1.69ZM263.55,1026.01c2.49,0,5.06,0,7.7.15,10.2.37,19.73,1.98,28.09,4.55l.37.15q.07,0,.15.07c.29.07.51.15.81.29,2.2.66,3.81,1.25,5.36,1.91,3.67,1.39,7.33,3.08,10.93,5.14,3.15,1.83,6.45,3.96,9.68,6.31,1.32,1.03,2.78,2.13,4.4,3.45.22.29.51.51.81.73.44.29.81.66,1.24,1.1,2.42,2.13,4.26,3.89,5.87,5.57.44.44.88.88,1.32,1.32l.59.66c.51.59,1.1,1.25,1.61,1.83l.88,1.03c.66.81,1.4,1.54,1.98,2.42.51.59,1.03,1.1,1.46,1.69,3.82,4.91,7.27,10.12,9.98,15.04.14.29.3.59.37.81l-93.59-54.2ZM347.17,1033.72c12.24,5.06,26.31,8.94,42.29,11.65h.02c-6.82,1.54-22.15,5.28-23.54,9.46-1.25,4.55,11.44,16.28,16.43,20.68-5.94,3.01-10.2,5.79-12.69,7.56-1.39-10.34-7.99-30.87-22.51-49.35ZM382.07,1093.56h107.96c-.07.07-.22.07-.3.15-6.38,3.81-13.13,7.04-20.17,9.53-1.39.59-2.78,1.03-4.25,1.54h-.22c-1.17.44-2.78.88-4.54,1.32-1.69.51-3.15.88-4.62,1.17-1.03.22-2.05.44-3.15.66-1.39.22-2.71.51-4.18.66-.95.15-1.91.29-2.86.37-.07,0-.15,0-.22.07-.51.07-1.1.15-1.69.15l-.58.07h-.22c-.66.07-1.32.15-2.05.15l-.52.07c-.51,0-1.03,0-1.54.07h-1.03c-.88.07-1.75.07-2.56.07-3.96,0-8-.29-12.25-.88-1.83-.29-3.67-.59-5.5-.95,0-.07-.07-.07-.15-.07-.29-.07-.44-.07-.73-.15-9.02-1.98-18.19-5.28-27.29-9.9-2.49-1.32-4.99-2.71-7.33-4.11ZM442.43,1125.02c-29.26,7.48-57.57-1.24-65.42-4.03,2.27-2.71,6.97-7.92,14.01-13.71,0,.07.07.07.15.07,1.47.66,3.01,1.25,4.47,1.83l.37.15c.74.29,1.4.51,1.98.73.3.07.52.15.74.22l.22.07c1.1.44,2.13.81,3.23,1.1l.22.07c.66.22,1.32.44,1.91.59.66.22,1.32.44,1.91.59l.51.15c.81.22,1.61.44,2.42.66,1.18.29,2.35.59,3.52.81.81.15,1.62.37,2.42.51l1.03.22c6.68,1.25,13.13,1.91,19.36,1.91,1.32,0,2.57-.07,3.82-.07h.36c1.1-.07,2.2-.15,3.23-.22.37,0,.81,0,1.17-.07l.44-.07c.88-.07,1.76-.15,2.56-.22.96-.07,1.99-.22,3.01-.37l2.27-.29c.66-.15,1.39-.22,2.13-.37l.59-.15c.66-.07,1.32-.22,1.84-.29,1.61-.37,3.15-.66,4.69-1.03.07-.07.15-.07.22-.07,4.91-1.17,9.83-2.71,14.67-4.47-8.43,5.87-20.02,12.25-34.03,15.77ZM450.43,1147.1c.67-4.33,1.98-10.78,4.62-17.02,17.09-6.16,31.25-16.14,40.41-25.01-10.93,28.46-33.37,38.58-45.03,42.03ZM517.9,1105.07c9.24,8.87,23.4,18.85,40.49,25.01,2.64,6.31,3.96,12.69,4.62,17.02-11.66-3.45-34.11-13.57-45.11-42.03ZM636.43,1120.99c-7.85,2.79-36.08,11.52-65.42,4.03-2.2-.51-4.18-1.1-6.02-1.76-11.36-3.59-20.9-9.09-27.94-14.01,4.77,1.76,9.68,3.3,14.59,4.47.07,0,.15,0,.22.07,1.54.37,3.08.66,4.62.96.58.15,1.25.29,1.9.37l.67.15c.66.15,1.39.22,2.12.37l2.2.29c1.02.15,2.05.29,2.93.37.88.07,1.69.15,2.57.22l.51.07c.37.07.81.07,1.18.07,1.03.07,2.13.15,3.23.22h.3c.88,0,1.83.07,2.64,0,.44.07.88.07,1.25.07,6.23,0,12.69-.66,19.36-1.91l1.03-.22c.81-.15,1.61-.37,2.42-.51,1.17-.22,2.35-.52,3.45-.81.73-.22,1.47-.37,2.2-.59l.73-.22c.67-.15,1.32-.37,1.83-.51.74-.22,1.4-.44,2.06-.66l.22-.07c1.1-.29,2.12-.66,3.23-1.1l.22-.07c.22-.07.52-.15.66-.22.66-.22,1.39-.44,2.05-.73l.37-.15c1.47-.59,3.01-1.17,4.48-1.83q.07,0,.15-.07c7.04,5.79,11.74,11,14.01,13.71ZM624.03,1097.67c-9.09,4.62-18.26,7.92-27.36,9.9-.22.07-.37.07-.59.15-.07,0-.15,0-.3.07-1.83.37-3.6.66-5.43.95-4.26.59-8.21.88-12.17.88h-1.32c-.44,0-.88,0-1.24-.07h-1.1c-.52-.07-1.03-.07-1.62-.07l-.44-.07c-.73,0-1.39-.07-2.05-.15h-.22l-.59-.07c-.58,0-1.17-.07-1.68-.15-.07-.07-.15-.07-.22-.07-1.03-.07-1.98-.22-2.86-.29-1.46-.22-2.78-.51-4.25-.73-1.03-.22-2.05-.44-3.23-.73-1.32-.22-2.71-.59-4.54-1.1-1.69-.44-3.3-.88-4.55-1.32h-.15c-1.47-.51-2.86-.95-4.26-1.54-6.97-2.49-13.79-5.72-20.17-9.53-.15-.07-.22-.07-.3-.15h107.96c-2.35,1.39-4.84,2.79-7.34,4.11ZM643.76,1083.07c-2.49-1.76-6.75-4.55-12.69-7.56,4.99-4.4,17.68-16.13,16.36-20.76-1.32-4.03-16.36-7.77-23.25-9.32,12.76-2.2,27.65-5.79,41.95-11.66-14.37,18.48-20.97,38.95-22.37,49.29ZM656.67,1079.48c2.71-4.99,6.16-10.19,9.98-15.11.52-.59.96-1.1,1.47-1.76.66-.81,1.32-1.54,2.05-2.35l.81-1.03c.52-.59,1.03-1.25,1.61-1.83l.66-.66c.37-.44.74-.88,1.25-1.32,1.62-1.69,3.45-3.45,5.87-5.57.44-.44.81-.81,1.25-1.1.3-.29.59-.44.81-.73,1.61-1.32,3.08-2.42,4.4-3.45,3.23-2.35,6.45-4.47,9.68-6.31,3.6-2.05,7.19-3.74,11-5.21,1.4-.59,3.08-1.17,5.35-1.91.22-.07.44-.15.66-.22.07,0,.15-.07.22-.07l.22-.07c8.58-2.64,18.04-4.25,28.24-4.62,2.64-.15,5.21-.15,7.7-.15l-93.66,54.28c.14-.29.29-.59.44-.81ZM754.96,1032.76c-1.4,2.64-2.93,5.21-4.62,7.7-5.65,8.51-11.95,15.92-18.85,22.08-.15.22-.37.37-.44.51-.07,0-.15.07-.22.15-1.25,1.1-2.64,2.2-4.25,3.45-3.37,2.64-6.75,4.91-10.12,6.82-.74.44-1.54.88-2.35,1.25l-.81.44c-.51.22-1.03.51-1.54.81-.81.37-1.54.73-2.42,1.1l-.15.07c-.22.07-.44.22-.73.29-.44.22-.88.44-1.47.66-.81.37-1.62.73-2.42,1.03l-.22.07c-1.39.59-2.71,1.03-4.1,1.47-.96.37-1.91.73-3.08,1.03-1.25.37-2.64.81-4.55,1.25-1.32.37-2.79.73-4.55,1.1-.07,0-.15,0-.15.07l-.44.07c-1.32.29-2.71.51-4.04.73-7.04,1.25-14.23,1.76-21.49,1.69l93-53.84ZM772.71,1054.61c-4.4,5.13-11.73,12.4-21.2,19.14-9.46,6.82-20.97,13.2-33.74,16.65-13.94,3.89-27.21,4.03-37.33,3.08,5.06-.81,10.05-1.91,14.96-3.3.07-.07.15-.07.22-.15,1.47-.44,3.01-.88,4.48-1.32.52-.22,1.1-.44,1.69-.59l.73-.29c1.18-.37,2.27-.81,3.52-1.25l.22-.15c1.03-.44,2.13-.88,3.16-1.32.66-.22,1.24-.51,1.9-.81l.88-.44c.37-.15.73-.37,1.02-.51,1.03-.44,1.98-.95,2.94-1.47.14,0,.14-.07.22-.07,1.17-.59,2.34-1.25,3.45-1.91,5.35-3.01,10.71-6.75,15.91-11.15.88-.73,1.76-1.54,2.64-2.35.88-.81,1.76-1.61,2.64-2.49.74-.66,1.47-1.39,2.2-2.13.44-.44.88-.88,1.25-1.32.59-.59,1.1-1.17,1.62-1.76.73-.81,1.54-1.61,2.27-2.49l.22-.22c.15-.15.29-.37.36-.44.52-.59.96-1.1,1.4-1.69l.29-.37c1.03-1.25,2.06-2.49,3.08-3.81l.08-.07c8.87,1.54,15.62,3.74,18.92,4.99ZM764.42,1007.74c-2.94-4.77-5.65-10.19-7.92-15.77-.3-.73-.52-1.39-.81-2.13-.51-1.25-.95-2.57-1.46-3.89l-.08-.29c-.29-.81-.51-1.54-.8-2.27-.08-.37-.22-.66-.3-.95-.15-.59-.37-1.1-.51-1.76-.67-2.2-1.25-4.62-1.98-7.85-.07-.51-.22-1.03-.3-1.54-.07-.44-.15-.73-.22-1.1-.37-2.05-.66-3.89-.88-5.57-.44-3.89-.67-7.77-.67-11.52,0-1.54,0-3.01.08-4.48.15-2.64.44-5.06.8-7.63.08-.95.22-1.83.37-2.71.22-.95.37-1.83.59-2.79v-.15c.07-.22.15-.44.15-.73,0,0,.07-.07.07-.15v-.22c1.91-8.8,5.28-17.82,9.98-26.92,1.18-2.42,2.49-4.77,3.89-6.97v107.38ZM764.42,872.57c-2.94-4.77-5.65-10.2-8-15.77l-.73-2.13c-.59-1.32-1.1-2.79-1.54-4.18-.29-.73-.59-1.54-.8-2.27l-.22-.66c-.22-.66-.44-1.32-.59-2.05-.81-2.71-1.47-5.57-1.98-7.85-.15-.51-.22-1.1-.37-1.61,0-.37-.07-.73-.15-1.03-.37-1.98-.66-3.81-.88-5.57-.44-3.89-.67-7.77-.67-11.44,0-4.25.3-8.21.88-12.18.15-1.54.44-3.3.96-5.65.07-.22.07-.44.15-.66v-.22l.07-.22c1.91-8.73,5.28-17.82,9.9-26.92,1.25-2.42,2.56-4.77,3.96-6.97v107.38ZM764.42,737.4c-3.01-4.77-5.72-10.27-8-15.77l-.8-2.13c-.44-1.1-.81-2.2-1.25-3.37l-1.03-3.08c-.15-.29-.22-.66-.37-.95-.15-.51-.29-1.1-.51-1.69-.59-2.27-1.17-4.62-1.91-7.92-.15-.44-.22-.95-.3-1.39-.07-.44-.22-.88-.22-1.17-.44-2.2-.66-3.96-.88-5.57-.52-4.18-.74-7.92-.74-11.52,0-4.11.3-8.14.88-12.1.3-1.98.67-3.96,1.03-5.72,0-.22.07-.44.15-.66v-.22l.07-.22c1.91-8.8,5.28-17.82,9.9-26.84,1.25-2.49,2.56-4.84,3.96-7.11v107.45ZM800.28,759.77c3.15,8.58,6.97,24.06,6.97,41.15,0,7.92-.88,16.21-2.86,24.28-3.6,14.01-9.98,25.6-15.84,33.96,1.83-4.77,3.3-9.68,4.48-14.6,0-.07.07-.15.07-.22.37-1.54.66-3.08.95-4.62.15-.59.3-1.25.37-1.91l.15-.66c.15-.73.3-1.54.37-2.27l.3-2.13c.15-.95.29-1.98.37-2.93.15-.81.15-1.61.22-2.57l.07-.44c0-.22.07-.51.07-.81v-.37c.07-1.1.15-2.13.22-3.23v-.29c.07-1.32.07-2.57.07-3.89,0-6.23-.66-12.76-1.91-19.36-.22-1.1-.44-2.27-.74-3.45l-.07-.37c-.22-1.03-.51-2.13-.74-3.15-.29-.95-.59-1.98-.81-2.93-.15-.59-.36-1.17-.52-1.76-.14-.59-.37-1.25-.58-1.83l-.15-.44c-.3-1.03-.66-2.13-1.11-3.23v-.15c-.14-.29-.22-.51-.29-.73-.29-.81-.59-1.61-.88-2.42-.59-1.47-1.17-3.01-1.83-4.55l-.07-.07c5.79-7.12,11-11.81,13.72-14.01ZM800.28,624.59c1.98,5.65,6.97,21.56,6.97,40.93,0,7.77-.81,16.06-2.93,24.5-3.52,14.01-9.98,25.6-15.77,34.03,1.76-4.84,3.3-9.75,4.48-14.67v-.22l.22-.73c.3-1.25.59-2.57.81-3.89.15-.66.3-1.39.44-2.05l.07-.44c.15-1.25.37-2.42.59-3.67.15-1.25.29-2.49.44-3.67.07-.88.15-1.76.22-2.57l.07-.44c0-.37.07-.81.07-1.25.07-1.03.15-2.13.15-3.15.07-.15.07-.29.07-.37,0-1.32.07-2.57.07-3.89,0-6.23-.66-12.69-1.91-19.36-.22-1.1-.44-2.35-.74-3.45-.3-1.17-.51-2.42-.88-3.45-.22-1.03-.52-2.05-.74-2.93-.15-.59-.36-1.17-.52-1.76l-.07-.15c-.22-.73-.44-1.47-.66-2.13-.3-1.1-.74-2.2-1.11-3.23-.07-.37-.22-.66-.29-.88-.29-.88-.59-1.69-.88-2.49-.59-1.47-1.17-3.01-1.83-4.47l-.07-.15c5.72-7.04,11-11.74,13.72-14.01ZM772.78,629.58c1.39,2.42,2.78,4.91,4.11,7.41,4.7,9.09,7.99,18.26,9.98,27.36.07.22.07.37.15.59v.29c.44,1.98.74,3.89.96,5.43.66,4.4.95,8.36.95,12.1,0,.88,0,1.83-.07,2.71,0,.29,0,.66-.07.95,0,.59,0,1.1-.07,1.69v.29c0,.81-.07,1.47-.15,2.2v.22l-.07.73c-.07.59-.15,1.1-.22,1.76-.07.95-.22,1.98-.37,2.86-.22,1.47-.44,2.79-.66,4.25-.22,1.03-.44,2.05-.73,3.15-.3,1.61-.74,3.23-1.1,4.62-.37,1.39-.8,2.93-1.32,4.47v.22c-.51,1.39-.95,2.86-1.54,4.25-2.49,7.04-5.72,13.79-9.53,20.17-.07.15-.15.29-.22.44v-108.18ZM786.64,908.95c5.72-7.11,10.93-11.81,13.64-14.01,3.23,8.58,6.97,23.98,6.97,41.07,0,7.92-.81,16.21-2.86,24.35-3.6,14.01-9.98,25.6-15.84,34.03,1.83-4.84,3.3-9.75,4.48-14.67.07-.07.07-.15.07-.22.37-1.54.66-3.08,1.03-4.69.07-.51.22-1.1.3-1.69l.15-.81c.22-1.17.44-2.35.59-3.67l.15-.66c.07-1.03.22-2.05.29-3.01.15-1.03.22-1.98.29-2.93.07-.44.07-.88.15-1.25.07-1.1.15-2.13.15-3.23v-.29c.07-1.32.07-2.64.07-3.89,0-6.23-.66-12.76-1.91-19.44l-.15-.88c-.22-.81-.37-1.69-.59-2.57v-.22c-.3-1.1-.51-2.2-.81-3.23-.22-.95-.51-1.83-.73-2.71l-.07-.22c-.07-.51-.29-1.03-.44-1.54l-.07-.22c-.22-.81-.44-1.61-.73-2.27-.3-1.03-.66-2.05-1.03-3.23l-.37-.88c-.29-.81-.59-1.61-.88-2.42-.59-1.47-1.17-3.01-1.83-4.55v-.07ZM776.96,907.34c4.62,9.09,7.99,18.26,9.98,27.36,0,.22.07.37.07.59.07.07.07.15.07.22.37,1.83.66,3.59.95,5.5.59,4.25.88,8.21.88,12.1v2.71c-.07.29-.07.66-.07,1.03,0,.51-.07,1.03-.07,1.61v.44c-.07.73-.15,1.39-.15,2.05-.07.07-.07.15-.07.22l-.07.66c0,.59-.07,1.1-.15,1.76-.07.88-.22,1.61-.3,2.42l-.07.51c-.22,1.39-.44,2.79-.74,4.25-.15.95-.37,1.91-.66,3.15-.3,1.39-.66,2.86-1.17,4.62-.37,1.54-.8,3.08-1.25,4.47-.07.07-.07.15-.07.15l-.22.73c-.44,1.25-.81,2.42-1.25,3.59-2.49,6.97-5.72,13.72-9.53,20.1l-.29.51v-108.26c1.47,2.42,2.86,4.91,4.18,7.48ZM773.07,872.5l-.29.37v-108.11c1.47,2.42,2.86,4.91,4.11,7.41,4.7,9.09,8.07,18.26,9.98,27.29q0,.07.07.15c0,.22.07.37.07.51,0,.07,0,.15.07.29.37,1.83.66,3.52.95,5.43.59,4.25.88,8.22.88,12.1v2.64c-.07.37-.07.73-.07,1.1-.07.51-.07,1.03-.07,1.61l-.07.51c0,.66-.07,1.32-.15,1.98v.22l-.07.59c0,.59-.07,1.17-.15,1.76,0,0-.07.07-.07.15-.07.95-.22,1.91-.3,2.86-.22,1.39-.52,2.79-.74,4.25-.15.95-.37,1.98-.73,3.15-.22,1.39-.59,2.86-1.1,4.62-.37,1.54-.8,3.08-1.32,4.55v.22c-.51,1.47-.95,2.79-1.47,4.18-2.49,6.97-5.72,13.72-9.53,20.17Z"/>
  <polygon class="cls-1" points="458.25 341.45 506.37 311.33 554.48 341.45 540.71 286.37 584.21 249.93 527.58 246.01 506.36 193.36 485.14 246.01 428.52 249.93 472.02 286.37 458.25 341.45"/>
  <polygon class="cls-1" points="647.43 341.45 677.72 322.49 708 341.45 699.33 306.78 726.72 283.84 691.07 281.37 677.71 248.23 664.36 281.37 628.71 283.84 656.09 306.78 647.43 341.45"/>
  <polygon class="cls-1" points="304.73 341.45 335.02 322.49 365.31 341.45 356.64 306.78 384.03 283.84 348.38 281.37 335.01 248.23 321.66 281.37 286.01 283.84 313.4 306.78 304.73 341.45"/>
  <path class="cls-1" d="M479.92,930.88c1.17,0,2.41-.66,2.86-1.83.66-1.54.15-3.01-.95-3.81-1.98-1.54-3.96-3.08-5.57-5.13-1.4-1.83-2.57-3.81-3.52-5.94-1.39-3.23-10.05-27.28-11-29.56-1.91-5.13-38.65-110.31-48.4-138.4-.88-2.49-4.33-2.57-5.28-.22-13.05,29.92-69.09,160.11-69.09,160.11-3.97,9.17-11.96,18.48-23.18,18.48h-.44c-1.76,0-3.15,1.39-3.15,3.15s1.39,3.15,3.15,3.15h55.67c.44,0,.81-.07,1.1-.22,1.25-.44,2.05-1.61,2.05-2.93,0-1.39-.81-2.57-2.05-3.01-.3-.15-.66-.15-1.1-.15-1.76-.07-2.93-.44-4.4-1.39-5.79-3.89-8.8-10.71-9.02-15.47-.07-.37-.07-.73-.07-1.03.07-2.57.66-5.13,1.69-7.48,1.76-4.03,5.43-12.54,6.31-14.6h55.3c1.1,3.23,2.71,7.48,4.03,10.93,2.86,7.7,1.76,16.5-3.52,22.88-1.91,2.35-4.62,4.55-8.22,6.31l-.07.07s0,.07-.07.07c-1.1.44-1.83,1.54-1.83,2.86,0,.51.07.95.29,1.39.52,1.03,1.62,1.76,2.86,1.76h65.64ZM373.86,865.16l21.27-49.21,18.41,49.21h-39.68Z"/>
  <path class="cls-1" d="M694.52,920.1c-1.39-1.83-2.64-3.81-3.52-5.94-1.39-3.23-10.12-27.28-11-29.56-1.98-5.13-38.65-110.31-48.48-138.4-.88-2.49-4.25-2.57-5.28-.22-12.98,29.92-69.02,160.11-69.02,160.11-3.96,9.17-12.03,18.48-23.18,18.48h-.52c-1.69,0-3.15,1.39-3.15,3.15s1.46,3.15,3.15,3.15h55.74c.37,0,.73-.07,1.1-.22,1.18-.44,2.06-1.61,2.06-2.93,0-1.39-.88-2.57-2.06-3.01-.37-.15-.73-.15-1.1-.15h-.07c-1.76-.07-2.86-.44-4.33-1.39-5.8-3.89-8.88-10.71-9.09-15.47v-1.03c0-2.57.66-5.13,1.69-7.48,1.68-4.03,5.43-12.54,6.31-14.6h55.23c1.1,3.23,2.79,7.48,4.04,10.93,2.93,7.7,1.83,16.5-3.45,22.88-1.98,2.35-4.62,4.55-8.29,6.31v.07c-.07,0-.07.07-.15.07-1.03.44-1.83,1.54-1.83,2.86,0,.51.15.95.37,1.39.52,1.03,1.54,1.76,2.86,1.76h65.57c1.25,0,2.42-.66,2.86-1.83.66-1.54.15-3.01-.88-3.81-1.98-1.54-4.04-3.08-5.57-5.13ZM592.13,865.16l21.2-49.21,18.41,49.21h-39.61Z"/>
  <path class="cls-1" d="M573.82,975.85c-1.06.06-2.16.06-3.25,0-6.65-.65-19.2-1.48-28.47-18.08-4.23-13.53-14.24-15.33-14.24-15.33l.06-149.69c.03-.06.06-.06.09-.12,13.55.09,19.52,12.41,19.52,15.6,0,.24.03.86.21,1.59v.03c.09,2.84,2.04,5.11,4.64,5.85.62.15,1.27.27,1.92.27.86,0,1.68-.15,2.42-.44.12-.03.24-.06.33-.12.15-.06.3-.12.44-.21.18-.09.35-.21.53-.32,1.36-.92,2.36-2.33,2.75-3.99.03-.18.09-.41.09-.62.03-.12.06-.24.06-.35.03-.18.03-.32.03-.5v-58.37c0-.24-.03-.47-.03-.68,0-2.81-1.71-5.43-4.37-6.32-4.58-1.51-8.83,1.86-8.83,6.2,0,.44.06.83.12,1.24-.8,5.61-6.85,16.22-19.82,16.28-.06-.03-.06-.06-.12-.12v-48.26h41.91c13.18,0,31.64,3.6,49.18,15.83.53.38,1.06.74,1.57,1.09,3.13,2.27,7.35-.86,6.06-4.52-1.01-2.89-1.83-5.17-1.92-5.43l-17.13-48.44c-.98-3.16-3.84-3.72-6.06-2.42-1.3.74-3.07,1.54-4.52,2.3-9.66,5.14-26.17,9.36-37.49,9.25,0,0-80.13.3-88.28.3s-27.29-1.12-40.62-6.44c-14.74-5.85-26.94-14.77-36.33-25.96-2.72-3.28-7.98-.65-7,3.49.68,2.84,1.53,5.76,2.63,8.51,4.34,11.05,12.49,27.41,30.07,40.64.12.09.27.18.38.27,10.13,7.56,22.54,11.55,35.21,11.55,8.62-.03,19.61-.03,26.23-.03,2.51,0,4.55,2.04,4.55,4.55l-.12,206.91c-.3,14.27-10.72,22.01-14.47,23.63-.42.18-.86.35-1.3.53-5.47,2.22-5.11,10.04.56,11.67,10.6,3.04,22.33,6.68,26.7,9.07,6.06,3.22,12.44,13.65,22.04,18.25,18.1,9.27,42.65,8.83,59.25-6.94,4.46-4.22.94-11.58-5.17-11.16Z"/>
</svg>