<?xml version="1.0" encoding="UTF-8"?>
<svg xmlns="http://www.w3.org/2000/svg" width="1188" height="162" viewBox="0 0 1188 162" fill="none">
  <path d="M1024.2 89.33L996.503 83.24C989.103 81.93 986.013 77.2 986.013 73.48C986.013 68.12 989.513 62.08 1001.86 62.08C1010.17 62.08 1016.52 64.93 1020.29 69.52C1022.28 71.94 1025.31 73.25 1028.44 73.25H1048.45C1051.19 73.25 1053.12 70.55 1052.22 67.96C1046.12 50.42 1027.79 37.88 1002.77 37.88C973.443 37.88 955.273 53.9 955.273 76.3C955.273 93.05 967.173 104.9 988.103 109.36L1011.85 114.21C1021.89 116.35 1024.66 120.53 1024.66 124.7C1024.66 131.24 1017.95 136.38 1006.49 136.38C998.183 136.38 991.133 134.14 986.333 129.4C984.063 127.16 981.273 125.55 978.083 125.55H956.353C953.753 125.55 951.833 128.01 952.493 130.53C957.943 151.31 979.933 161.04 1003.72 161.04C1033.96 161.04 1054.72 147.78 1054.72 122.17C1054.72 106.54 1044.68 93.74 1024.2 89.34" fill="#FF0051"></path>
  <path d="M694.474 67.86H764.544C767.614 67.86 770.094 70.34 770.094 73.41V91.37C770.094 94.44 767.614 96.92 764.544 96.92H694.474C693.824 96.92 693.294 97.45 693.294 98.1V152.51C693.294 155.58 690.814 158.06 687.744 158.06H666.714C663.644 158.06 661.164 155.58 661.164 152.51V5.59998C661.164 2.52998 663.644 0.0499878 666.714 0.0499878H773.754C776.824 0.0499878 779.304 2.52998 779.304 5.59998V23.56C779.304 26.63 776.824 29.11 773.754 29.11H694.474C693.824 29.11 693.294 29.64 693.294 30.29V66.69C693.294 67.34 693.824 67.87 694.474 67.87V67.86Z" fill="#FF0051"></path>
  <path d="M74.3734 157.95H48.2834C45.8134 157.97 43.6434 156.34 42.9534 153.96L0.223437 7.10999C-0.806563 3.55999 1.85344 0.00997925 5.55344 0.00997925H27.6534C30.1434 0.00997925 32.3334 1.66999 33.0034 4.07999L60.9434 104.93C61.2634 106.07 62.8734 106.08 63.2134 104.95L92.6934 4.00998C93.3834 1.63998 95.5534 0.019989 98.0234 0.019989H120.403C122.873 0.019989 125.043 1.64998 125.733 4.00998L155.213 104.95C155.543 106.09 157.163 106.08 157.483 104.93L185.423 4.07999C186.093 1.67999 188.273 0.00997925 190.773 0.00997925H212.873C216.573 0.00997925 219.233 3.55999 218.203 7.10999L175.473 153.97C174.783 156.34 172.613 157.97 170.143 157.97H144.053C141.583 157.95 139.403 156.32 138.723 153.94L110.353 55.33C110.023 54.19 108.413 54.19 108.093 55.33L79.7234 153.94C79.0434 156.32 76.8634 157.95 74.3934 157.96L74.3734 157.95Z" fill="#FF0051"></path>
  <path d="M485.183 0H465.203C462.138 0 459.653 2.48481 459.653 5.54999V152.36C459.653 155.425 462.138 157.91 465.203 157.91H485.183C488.248 157.91 490.733 155.425 490.733 152.36V5.54999C490.733 2.48481 488.248 0 485.183 0Z" fill="#FF0051"></path>
  <path d="M442.193 43.66V64.22C442.193 67.07 439.873 69.54 437.023 69.75C416.783 71.26 393.443 81.67 393.443 105.86V152.41C393.443 155.48 390.953 157.96 387.893 157.96H367.873C364.803 157.96 362.323 155.48 362.323 152.41V45.88C362.323 42.81 364.803 40.33 367.873 40.33H387.893C390.963 40.33 393.443 42.81 393.443 45.88V64C393.443 65.25 395.093 65.62 395.673 64.52C402.853 50.92 418.313 39.9 436.003 38.14C439.303 37.81 442.183 40.35 442.183 43.67L442.193 43.66Z" fill="#FF0051"></path>
  <path d="M341.284 99.56C341.284 136.4 312.934 161.04 279.284 161.04C245.634 161.04 216.594 136.4 216.594 99.56C216.594 62.72 244.944 38.08 279.284 38.08C313.624 38.08 341.284 62.71 341.284 99.56ZM311.784 99.56C311.784 77.73 295.184 64.6 279.284 64.6C263.384 64.6 246.094 77.74 246.094 99.56C246.094 121.38 262.694 134.52 279.284 134.52C295.874 134.52 311.784 121.38 311.784 99.56Z" fill="#FF0051"></path>
  <path d="M825.873 40.36H805.893C802.828 40.36 800.343 42.8448 800.343 45.91V152.45C800.343 155.515 802.828 158 805.893 158H825.873C828.938 158 831.423 155.515 831.423 152.45V45.91C831.423 42.8448 828.938 40.36 825.873 40.36Z" fill="#FF0051"></path>
  <path d="M825.873 0.0499878H805.893C802.828 0.0499878 800.343 2.5348 800.343 5.59998V25.59C800.343 28.6552 802.828 31.14 805.893 31.14H825.873C828.938 31.14 831.423 28.6552 831.423 25.59V5.59998C831.423 2.5348 828.938 0.0499878 825.873 0.0499878Z" fill="#FF0051"></path>
  <path d="M937.874 43.66V64.22C937.874 67.1 935.524 69.54 932.654 69.76C912.424 71.28 889.134 81.7 889.134 105.87V152.42C889.134 155.49 886.644 157.97 883.584 157.97H863.564C860.494 157.97 858.014 155.49 858.014 152.42V45.89C858.014 42.82 860.494 40.34 863.564 40.34H883.584C886.654 40.34 889.134 42.82 889.134 45.89V64.01C889.134 65.25 890.774 65.64 891.354 64.55C898.544 50.91 914.054 39.87 931.804 38.14C935.064 37.82 937.874 40.41 937.884 43.68L937.874 43.66Z" fill="#FF0051"></path>
  <path d="M627.313 157.95H608.223C605.153 157.95 602.673 155.47 602.673 152.4V142.72C602.673 141.57 601.163 141.14 600.573 142.12C593.143 154.44 579.963 161.04 564.643 161.04C535.373 161.04 508.173 136.74 508.173 100.56C508.173 64.38 535.363 39.48 564.643 39.48C578.723 39.48 593.353 44.13 600.533 56.84C601.113 57.86 602.673 57.44 602.673 56.27V5.60999C602.673 2.53999 605.153 0.0599976 608.223 0.0599976H627.313C630.383 0.0599976 632.863 2.53999 632.863 5.60999V152.41C632.863 155.48 630.383 157.96 627.313 157.96V157.95ZM602.673 100.55C602.673 79.34 586.303 65.98 569.943 65.98C551.503 65.98 537.673 79.35 537.673 100.55C537.673 121.75 551.503 134.89 569.943 134.89C586.313 134.89 602.673 121.75 602.673 100.55Z" fill="#FF0051"></path>
  <path d="M1092.73 98.39C1085.23 97.47 1078.55 95.39 1074.36 91.35C1071.46 95.56 1070.74 99.62 1071.81 103.66C1074.75 107.38 1081.84 112.8 1093.08 115.49C1092.86 113.62 1092.73 111.72 1092.73 109.79V98.38V98.39Z" fill="url(#paint0_linear_7032_1140)"></path>
  <path d="M1156.36 127.96H1141.79C1131.8 127.96 1123.63 119.79 1123.63 109.8L1123.48 5.60999C1123.48 2.54999 1120.99 0.0699768 1117.93 0.0699768H1098.28C1095.21 0.0699768 1092.73 2.55 1092.73 5.62V109.8C1092.73 111.73 1092.86 113.63 1093.08 115.5C1095.9 139.44 1116.25 158.02 1140.95 158.02H1156.36C1159.43 158.02 1161.91 155.54 1161.91 152.47V133.51C1161.91 130.44 1159.43 127.96 1156.36 127.96Z" fill="#FF0051"></path>
  <path d="M1187.86 44.38C1187.19 40.45 1184.31 31.78 1181.41 26.52C1179.54 23.13 1176 22 1172.91 22.25C1136.74 25.24 1096.81 45.06 1080.64 60.98C1068.28 73.16 1061.54 90.81 1071.81 103.69C1068.9 92.84 1078.93 81.82 1109.51 68.23C1124.02 61.78 1143.15 56.15 1182.37 51.06C1185.73 50.62 1188.67 49.22 1187.85 44.37L1187.86 44.38Z" fill="url(#paint1_linear_7032_1140)"></path>
  <defs>
    <linearGradient id="paint0_linear_7032_1140" x1="1070.23" y1="98.7" x2="1107.1" y2="112.11" gradientUnits="userSpaceOnUse">
      <stop stop-color="#7D0042"></stop>
      <stop offset="0.26" stop-color="#990047"></stop>
      <stop offset="0.6" stop-color="#C60051"></stop>
    </linearGradient>
    <linearGradient id="paint1_linear_7032_1140" x1="1053.9" y1="85.15" x2="1181.23" y2="38.8001" gradientUnits="userSpaceOnUse">
      <stop stop-color="#CC004E"></stop>
      <stop offset="0.11" stop-color="#EB004F"></stop>
      <stop offset="0.2" stop-color="#FF0051"></stop>
      <stop offset="0.24" stop-color="#FF0C4D"></stop>
      <stop offset="0.42" stop-color="#FF3840"></stop>
      <stop offset="0.58" stop-color="#FF5A36"></stop>
      <stop offset="0.74" stop-color="#FF732F"></stop>
      <stop offset="0.88" stop-color="#FF822B"></stop>
      <stop offset="1" stop-color="#FF882A"></stop>
    </linearGradient>
  </defs>
</svg>
