<?xml version="1.0" encoding="UTF-8"?>
<svg id="Layer_1" data-name="Layer 1" xmlns="http://www.w3.org/2000/svg" viewBox="0 0 1350 730">
  <defs>
    <style>
      .cls-1 {
        fill: #d6b15e;
        fill-rule: evenodd;
      }

      .cls-2 {
        fill: #fff;
      }
    </style>
  </defs>
  <g>
    <polygon class="cls-2" points="458.7 422.32 499.1 321.68 465.15 321.68 439.77 393.78 437.81 393.78 411.83 321.68 377.73 321.68 418.14 422.32 458.7 422.32"/>
    <path class="cls-2" d="M512.77,422.32l7.8-18.63h47.79l7.65,18.63h32.45l-43.56-100.64h-40.41l-43.41,100.64h31.69ZM543.57,347.22h1.95l6.61,16.97,5.8,14.12h-26.73l5.91-14.12,6.46-16.97Z"/>
    <polygon class="cls-2" points="639.7 380.71 638.65 363.89 640.6 363.89 646.31 380.71 661.33 416.31 695.58 416.31 710.6 380.71 716.31 363.89 718.26 363.89 717.21 380.71 717.21 422.32 745.45 422.32 745.45 321.68 707.14 321.68 689.57 363.44 680.11 389.43 678.15 389.43 668.24 363.44 649.76 321.68 611.46 321.68 611.46 422.32 639.7 422.32 639.7 380.71"/>
    <path class="cls-2" d="M808.69,423.82c12.02,0,22.21-2.13,30.57-6.38,8.36-4.25,14.75-10.26,19.15-18.03,4.4-7.76,6.61-16.9,6.61-27.41s-2.2-19.65-6.61-27.42c-4.41-7.76-10.79-13.77-19.15-18.03-8.36-4.25-18.55-6.38-30.57-6.38s-21.61,2.13-29.97,6.38c-8.36,4.26-14.75,10.27-19.15,18.03-4.41,7.76-6.61,16.9-6.61,27.42s2.2,19.65,6.61,27.41c4.4,7.76,10.79,13.77,19.15,18.03,8.36,4.26,18.35,6.38,29.97,6.38ZM785.18,356.6c1.45-3.55,4.03-6.01,7.73-7.36,3.7-1.35,8.96-2.03,15.77-2.03s12.12.68,15.92,2.03c3.8,1.35,6.48,3.81,8.04,7.36,1.55,3.56,2.33,8.69,2.33,15.4s-.78,11.72-2.33,15.32c-1.55,3.61-4.23,6.08-8.04,7.44-3.81,1.35-9.11,2.03-15.92,2.03s-12.07-.68-15.77-2.03c-3.71-1.35-6.28-3.83-7.73-7.44-1.45-3.61-2.18-8.71-2.18-15.32s.72-11.84,2.18-15.4Z"/>
    <path class="cls-2" d="M871.78,386.42v.9c0,8.51,2,15.45,6.01,20.81,4,5.36,9.71,9.31,17.13,11.87,7.41,2.55,16.22,3.83,26.44,3.83,11.32,0,20.43-1.52,27.34-4.58,6.91-3.05,11.94-7.06,15.1-12.02,3.15-4.96,4.73-10.29,4.73-16,0-4.3-.9-8.46-2.7-12.47-1.8-4-4.96-7.48-9.46-10.44-4.51-2.95-10.87-5.03-19.08-6.24l-31.54-4.66c-1.8-.3-3.23-.65-4.28-1.05-1.05-.4-1.8-.98-2.25-1.73-.45-.75-.68-1.63-.68-2.63,0-1.5.47-2.7,1.43-3.6.95-.9,2.68-1.58,5.18-2.03,2.5-.45,6.16-.68,10.97-.68,6.31,0,11.04.3,14.19.9,3.15.6,5.26,1.6,6.31,3,1.05,1.4,1.58,3.31,1.58,5.71v2.25h28.24v-.9c0-7.51-1.73-13.99-5.18-19.45-3.46-5.46-8.66-9.66-15.62-12.62-6.96-2.95-15.8-4.43-26.51-4.43-9.11,0-16.78.95-22.98,2.85-6.21,1.9-11.22,4.43-15.02,7.59-3.81,3.15-6.56,6.68-8.26,10.59-1.7,3.91-2.55,7.86-2.55,11.87,0,5.41,1.05,10.12,3.15,14.12,2.1,4.01,5.26,7.24,9.46,9.69,4.21,2.46,9.41,4.13,15.62,5.03l31.55,4.21c4.1.5,6.83,1.2,8.19,2.1,1.35.9,2.03,2.25,2.03,4.05,0,1.5-.38,2.68-1.13,3.53-.75.85-2.48,1.45-5.18,1.8-2.7.35-6.91.53-12.62.53-6.31,0-10.97-.25-13.97-.75-3-.5-4.98-1.37-5.93-2.63-.95-1.25-1.43-2.98-1.43-5.18v-3.15h-28.24Z"/>
    <path class="cls-2" d="M249.67,449.64l-43.41,100.64h31.69l7.8-18.63h47.79l7.65,18.63h32.45l-43.56-100.64h-40.41ZM256.38,506.27l5.91-14.12,6.46-16.97h1.95l6.61,16.97,5.8,14.12h-26.73Z"/>
    <path class="cls-2" d="M419.94,515.51c-2.25-2.55-5.99-4.48-11.19-5.78v-1.5c6.41-.8,11.62-2.38,15.62-4.73,4-2.35,6.93-5.46,8.79-9.31,1.85-3.85,2.78-8.43,2.78-13.74,0-6.61-1.53-12.19-4.58-16.75-3.06-4.56-7.59-8.04-13.6-10.44-6.01-2.4-13.47-3.6-22.38-3.6h-58.73v100.64h28.24v-34.25h11.57c3.7,0,6.61.28,8.71.83,2.1.55,3.8,1.53,5.11,2.93,1.3,1.4,2.55,3.36,3.75,5.86l12.02,24.64h32.6l-12.47-25.24c-1.9-3.8-3.98-6.98-6.23-9.54ZM403.79,493.2c-1.7,1.2-4.61,1.8-8.71,1.8h-30.19v-19.98h30.19c4.1,0,7.01.65,8.71,1.95,1.7,1.3,2.55,3.96,2.55,7.96,0,4.31-.85,7.06-2.55,8.26Z"/>
    <path class="cls-2" d="M494.97,516.03h30.86c-.33,1.76-.86,3.21-1.64,4.28-1.35,1.85-4.08,3.06-8.19,3.6-4.11.55-10.21.83-18.33.83-6.81,0-12.09-.68-15.85-2.03-3.75-1.35-6.38-3.83-7.89-7.44-1.5-3.61-2.25-8.71-2.25-15.32s.8-11.84,2.41-15.4c1.6-3.55,4.38-6.01,8.34-7.36,3.96-1.35,9.54-2.03,16.75-2.03,8.91,0,15.07.98,18.48,2.93,3.4,1.95,5.11,5.28,5.11,9.99v1.05h31.55v-1.05c0-8.31-2.16-15.45-6.46-21.4-4.31-5.96-10.51-10.54-18.63-13.75-8.11-3.2-17.87-4.81-29.29-4.81-12.22,0-22.68,2.13-31.39,6.38-8.71,4.26-15.37,10.27-19.98,18.03-4.61,7.76-6.91,16.9-6.91,27.42s1.98,19.65,5.93,27.41c3.96,7.76,9.69,13.77,17.2,18.03,7.51,4.26,16.52,6.38,27.04,6.38,7.91,0,14.24-1.1,19-3.3,4.76-2.2,8.36-5.06,10.82-8.56,2.45-3.5,4.13-7.21,5.03-11.12h1.5v21.48h26.29v-54.98h-59.48v20.73Z"/>
    <polygon class="cls-2" points="570.53 449.64 562.87 449.64 562.87 550.28 570.53 550.28 591.11 550.28 652.25 550.28 652.25 524.9 591.11 524.9 591.11 512.28 649.99 512.28 649.99 487.04 591.11 487.04 591.11 475.03 652.25 475.03 652.25 449.64 591.11 449.64 570.53 449.64"/>
    <polygon class="cls-2" points="733.51 488.54 734.86 510.48 732.91 510.48 718.19 487.34 690.25 449.64 660.21 449.64 660.21 550.28 688.45 550.28 688.45 510.93 687.24 491.7 689.2 491.7 701.97 511.53 731.71 550.28 761.75 550.28 761.75 449.64 733.51 449.64 733.51 488.54"/>
    <polygon class="cls-2" points="804.11 449.64 768.51 449.64 768.51 475.03 804.11 475.03 804.11 550.28 832.35 550.28 832.35 475.03 867.8 475.03 867.8 449.64 832.35 449.64 804.11 449.64"/>
    <rect class="cls-2" x="874.56" y="449.64" width="28.24" height="100.64"/>
    <polygon class="cls-2" points="985.11 488.54 986.46 510.48 984.51 510.48 969.79 487.34 941.85 449.64 911.81 449.64 911.81 550.28 940.05 550.28 940.05 510.93 938.85 491.7 940.8 491.7 953.57 511.53 983.31 550.28 1013.35 550.28 1013.35 449.64 985.11 449.64 985.11 488.54"/>
    <path class="cls-2" d="M1111.29,550.28h32.45l-43.56-100.64h-40.41l-43.41,100.64h31.69l7.8-18.63h47.79l7.65,18.63ZM1066.48,506.27l5.91-14.12,6.46-16.97h1.95l6.61,16.97,5.8,14.12h-26.73Z"/>
  </g>
  <g>
    <polygon class="cls-1" points="798.81 228.96 778 227.52 770.19 208.17 762.4 227.52 741.58 228.96 757.57 242.35 752.51 262.59 770.2 251.53 787.88 262.59 782.82 242.35 798.81 228.96"/>
    <polygon class="cls-1" points="608.42 228.96 587.61 227.52 579.8 208.17 572 227.52 551.19 228.96 567.18 242.35 562.12 262.59 579.81 251.53 597.49 262.59 592.43 242.35 608.42 228.96"/>
    <polygon class="cls-1" points="719.3 210.45 687.03 208.22 674.94 178.22 662.85 208.22 630.58 210.45 655.37 231.21 647.53 262.59 674.95 245.43 702.36 262.59 694.51 231.21 719.3 210.45"/>
  </g>
</svg>